<svg fill="none" height="20" viewBox="0 0 20 20" width="20" xmlns="http://www.w3.org/2000/svg"><g fill="#00b63e"><path d="m9.99992 10.4167c-.77355 0-1.51541.3073-2.0624.8543-.54698.547-.85427 1.2889-.85427 2.0624 0 .7736.30729 1.5154.85427 2.0624.54699.547 1.28885.8543 2.0624.8543.77358 0 1.51538-.3073 2.06238-.8543s.8543-1.2888.8543-2.0624c0-.7735-.3073-1.5154-.8543-2.0624s-1.2888-.8543-2.06238-.8543zm-1.25 2.9167c0-.3315.13169-.6494.36611-.8839.23443-.2344.55237-.3661.88389-.3661.33148 0 .64948.1317.88388.3661.2344.2345.3661.5524.3661.8839s-.1317.6495-.3661.8839-.5524.3661-.88388.3661c-.33152 0-.64946-.1317-.88389-.3661-.23442-.2344-.36611-.5524-.36611-.8839z"/><path d="m14.605 4.26324-2.6492-3.714168-9.7408 7.781668-.54-.00584v.00834h-.425v9.99996h17.5v-9.99996h-.8017l-1.595-4.66583zm1.5825 4.07h-8.35667l6.22417-2.12167 1.2683-.40583zm-3.2292-3.50833-6.42497 2.19 5.08837-4.065zm-10.04163 10.31579v-3.6166c.35158-.1246.67092-.3261.93474-.5898.26383-.2637.46548-.5829.59026-.9344h11.11663c.1248.3516.3264.671.5902.9348.2638.2639.5832.4655.9348.5902v3.6167c-.3516.1247-.671.3263-.9348.5901-.2638.2639-.4654.5832-.5902.9349h-11.11497c-.12484-.352-.32669-.6716-.59081-.9356-.26412-.2639-.58385-.4656-.93585-.5903z"/></g></svg>