<svg enable-background="new 0 0 64 64" height="64" viewBox="0 0 64 64" width="64" xmlns="http://www.w3.org/2000/svg"><path d="m53 48.964c3.75-4.636 6-10.536 6-16.964s-2.25-12.328-6-16.964v-.036h-.028c-4.951-6.1-12.504-10-20.972-10s-16.021 3.9-20.972 10h-.028v.036c-3.75 4.636-6 10.536-6 16.964s2.25 12.328 6 16.964v.036h.028c4.951 6.1 12.504 10 20.972 10s16.021-3.9 20.972-10h.028zm-4.018-17.464c-.094-5.695-1.771-11.001-4.615-15.5h8.104c3.363 4.293 5.405 9.663 5.517 15.5zm-1 0h-15.482v-15.5h10.653c2.966 4.459 4.732 9.776 4.829 15.5zm-15.482-16.5v-8.637c3.947 2.087 7.365 5.047 9.975 8.637zm-1 0h-9.975c2.609-3.59 6.027-6.55 9.975-8.637zm0 1v15.5h-15.482c.098-5.724 1.862-11.041 4.829-15.5zm-16.482 15.5h-9.005c.111-5.837 2.153-11.207 5.516-15.5h8.104c-2.845 4.499-4.522 9.805-4.615 15.5zm0 1c.094 5.695 1.771 11.001 4.615 15.5h-8.104c-3.363-4.293-5.405-9.663-5.516-15.5zm1 0h15.482v15.5h-10.653c-2.967-4.459-4.731-9.776-4.829-15.5zm15.482 16.5v8.638c-3.948-2.088-7.365-5.048-9.975-8.638zm1 0h9.975c-2.609 3.59-6.027 6.55-9.975 8.638zm0-1v-15.5h15.482c-.098 5.724-1.863 11.041-4.829 15.5zm16.482-15.5h9.005c-.111 5.837-2.153 11.207-5.517 15.5h-8.104c2.846-4.499 4.523-9.805 4.616-15.5zm2.664-17.5h-7.938c-2.505-3.632-5.79-6.676-9.613-8.908 6.993.56 13.211 3.898 17.551 8.908zm-21.742-8.908c-3.823 2.232-7.108 5.276-9.613 8.908h-7.938c4.341-5.01 10.559-8.348 17.551-8.908zm-17.551 42.908h7.938c2.504 3.632 5.79 6.677 9.613 8.908-6.992-.56-13.21-3.897-17.551-8.908zm21.743 8.908c3.822-2.231 7.108-5.276 9.613-8.908h7.938c-4.341 5.011-10.559 8.348-17.551 8.908z" fill="#37474f"/></svg>