<svg fill="none" height="18" viewBox="0 0 21 18" width="21" xmlns="http://www.w3.org/2000/svg" xmlns:xlink="http://www.w3.org/1999/xlink"><clipPath id="a"><path d="m0 .40918h21v17.1818h-21z"/></clipPath><g clip-path="url(#a)"><path d="m3.81777 17.5056v-1.1372c0-.436-.25217-.7202-.68439-.7202-.21607 0-.45019.0758-.61228.3222-.126-.2085-.30606-.3222-.57619-.3222-.18014 0-.36012.0568-.50425.2653v-.2274h-.37816v1.8195h.37816v-1.0046c0-.3221.1621-.4738.41426-.4738.252 0 .37817.1706.37817.4738v1.0046h.37816v-1.0046c0-.3221.17998-.4738.41409-.4738.25217 0 .37817.1706.37817.4738v1.0046zm5.60035-1.8195h-.6122v-.5497h-.37816v.5497h-.34215v.36h.34207v.8341c0 .417.16209.6633.59431.6633.1621 0 .34207-.0568.46824-.1326l-.10812-.3412c-.10804.0758-.23404.0948-.32411.0948-.18006 0-.25208-.1137-.25208-.3033v-.8151h.6122zm3.20548-.038c-.2161 0-.3601.1138-.4502.2654v-.2274h-.3782v1.8195h.3782v-1.0235c0-.3032.126-.4738.3601-.4738.072 0 .1621.019.2341.0379l.1081-.379c-.0721-.019-.1801-.0191-.2521-.0191zm-4.84414.1896c-.18014-.1327-.43222-.1895-.70235-.1895-.43214 0-.72023.2274-.72023.5875 0 .3033.21607.4739.59423.5308l.18006.019c.19811.0378.30614.0947.30614.1895 0 .1326-.14404.2274-.39621.2274-.25208 0-.45019-.0948-.57627-.1895l-.18006.3032c.19811.1516.46824.2274.73829.2274.50424 0 .79242-.2463.79242-.5875 0-.3222-.23412-.4929-.59432-.5497l-.18006-.019c-.16209-.019-.28809-.0568-.28809-.1705 0-.1327.126-.2085.3241-.2085.21616 0 .43223.0947.54026.1516zm10.04844-.1895c-.2162 0-.3602.1137-.4503.2653v-.2274h-.3782v1.8195h.3782v-1.0235c0-.3032.1261-.4738.3601-.4738.0721 0 .1622.019.2342.0379l.1081-.379c-.0721-.019-.1801-.019-.2521-.019zm-4.8262.9476c0 .5497.3602.9477.9185.9477.252 0 .4321-.0568.6122-.2084l-.1801-.3222c-.144.1137-.2881.1705-.4502.1705-.3061 0-.5222-.2274-.5222-.5876 0-.3411.2161-.5686.5222-.5875.1621 0 .3062.0568.4502.1706l.1801-.3222c-.1801-.1517-.3602-.2085-.6122-.2085-.5583 0-.9185.398-.9185.9476zm3.4936 0v-.9097h-.3782v.2274c-.1261-.1705-.3061-.2653-.5402-.2653-.4862 0-.8644.398-.8644.9476 0 .5497.3782.9477.8644.9477.252 0 .4322-.0947.5402-.2653v.2274h.3782zm-1.3867 0c0-.3222.1981-.5875.5222-.5875.3062 0 .5223.2464.5223.5875 0 .3223-.2161.5876-.5223.5876-.3241-.019-.5222-.2653-.5222-.5876zm-4.5199-.9476c-.5042 0-.86444.379-.86444.9476 0 .5687.36014.9477.88244.9477.2521 0 .5042-.0758.7023-.2463l-.1801-.2843c-.1441.1137-.3241.1895-.5042.1895-.2341 0-.4682-.1137-.5223-.436h1.2786v-.1516c.0181-.5876-.306-.9666-.7923-.9666zm0 .3411c.234 0 .3962.1517.4321.436h-.9003c.036-.2464.1981-.436.4682-.436zm9.3821.6065v-1.63h-.3782v.9477c-.1261-.1705-.3061-.2653-.5402-.2653-.4862 0-.8644.398-.8644.9476 0 .5497.3782.9477.8644.9477.2521 0 .4322-.0947.5402-.2653v.2274h.3782zm-1.3866 0c0-.3222.198-.5875.5222-.5875.3062 0 .5222.2464.5222.5875 0 .3223-.216.5876-.5222.5876-.3242-.019-.5222-.2653-.5222-.5876zm-12.64158 0v-.9097h-.37816v.2274c-.12609-.1705-.30614-.2653-.54026-.2653-.4862 0-.86436.398-.86436.9476 0 .5497.37816.9477.86436.9477.25216 0 .43222-.0947.54026-.2653v.2274h.37816zm-1.40462 0c0-.3222.19811-.5875.52221-.5875.30614 0 .52229.2464.52229.5875 0 .3223-.21615.5876-.52229.5876-.3241-.019-.52221-.2653-.52221-.5876z" fill="#000"/><path d="m7.65332 1.86865h5.67248v10.72795h-5.67248z" fill="#ff5f00"/><path d="m8.01355 7.23261c0-2.17968.9724-4.11302 2.46705-5.36401-1.09844-.909775-2.48501-1.45942-3.99767-1.45942-3.5837 0-6.48293 3.05154-6.48293 6.82343 0 3.77179 2.89923 6.82339 6.48285 6.82339 1.51265 0 2.89923-.5496 3.99775-1.4595-1.49465-1.232-2.46705-3.18422-2.46705-5.36389z" fill="#eb001b"/><path d="m20.9791 7.23261c0 3.77179-2.8992 6.82339-6.4829 6.82339-1.5126 0-2.8992-.5496-3.9977-1.4595 1.5127-1.2509 2.4671-3.18422 2.4671-5.36389 0-2.17968-.9725-4.11302-2.4671-5.36401 1.0984-.909775 2.4851-1.45942 3.9977-1.45942 3.5837 0 6.4829 3.07054 6.4829 6.82343z" fill="#f79e1b"/></g></svg>