<svg fill="none" height="8" viewBox="0 0 21 8" width="21" xmlns="http://www.w3.org/2000/svg" xmlns:xlink="http://www.w3.org/1999/xlink"><linearGradient id="a" gradientUnits="userSpaceOnUse" x1="965.454" x2="992.763" y1="24.048" y2="-797.308"><stop offset="0" stop-color="#333335"/><stop offset="1" stop-color="#254aa5"/></linearGradient><path d="m10.8607 2.55751c-.012 1.11443.8419 1.73629 1.4851 2.10606.6608.37935.8828.62264.8802.96192-.0049.51919-.5272.74834-1.0158.75725-.8526.01558-1.3483-.27155-1.7424-.48871l-.3071 1.69536c.3954.21494 1.1275.40238 1.8867.41061 1.7822 0 2.9481-1.03779 2.9544-2.64683.007-2.04209-2.3943-2.15512-2.3779-3.06788.0056-.27677.2295-.57212.72-.64722.2429-.03793.9131-.06697 1.6731.34587l.2982-1.6403c-.4086-.175546-.9339-.34364-1.5878-.34364-1.6774 0-2.8572 1.05192-2.8667 2.55751zm7.3205-2.416222c-.3254 0-.5996.223932-.722.567571l-2.5457 7.170661h1.7808l.3544-1.15537h2.1761l.2056 1.15537h1.5696l-1.3697-7.738232zm.2492 2.090382.5139 2.9058h-1.4075zm-9.72885-2.090285-1.40372 7.738035h1.69698l1.40309-7.738229h-1.69635m-2.51041 0-1.76629 5.267049-.71449-4.478352c-.08384-.499927-.41492-.7886-.78258-.7886h-2.8873386l-.0404414.224706c.592758.15174 1.26623.396478 1.67426.658346.2497.15996.3209.2998.40294.67992l1.35326 6.17526h1.79329l2.74936-7.738232z" fill="url(#a)"/></svg>